<mxfile host="app.diagrams.net" agent="Mozilla/5.0 (Windows NT 10.0; Win64; x64) AppleWebKit/537.36 (KHTML, like Gecko) Chrome/134.0.0.0 Safari/537.36" version="26.1.0">
  <diagram name="Page-1" id="NNn1w29cxG2LErPeuqag">
    <mxGraphModel dx="826" dy="1524" grid="1" gridSize="10" guides="1" tooltips="1" connect="1" arrows="1" fold="1" page="1" pageScale="1" pageWidth="850" pageHeight="1100" math="0" shadow="0">
      <root>
        <mxCell id="0" />
        <mxCell id="1" parent="0" />
        <mxCell id="r0InS06p0t5X-sUGNF3C-2" value="user&lt;div&gt;&lt;br&gt;&lt;/div&gt;" style="rounded=1;arcSize=10;whiteSpace=wrap;html=1;align=center;" vertex="1" parent="1">
          <mxGeometry x="30" y="40" width="100" height="40" as="geometry" />
        </mxCell>
        <mxCell id="r0InS06p0t5X-sUGNF3C-3" value="ticket" style="rounded=1;arcSize=10;whiteSpace=wrap;html=1;align=center;" vertex="1" parent="1">
          <mxGeometry x="590" y="245" width="100" height="40" as="geometry" />
        </mxCell>
        <mxCell id="r0InS06p0t5X-sUGNF3C-6" value="" style="endArrow=none;html=1;rounded=0;exitX=1;exitY=0;exitDx=0;exitDy=0;" edge="1" parent="1" target="r0InS06p0t5X-sUGNF3C-12">
          <mxGeometry relative="1" as="geometry">
            <mxPoint x="130" y="70.87" as="sourcePoint" />
            <mxPoint x="373.47826086956525" y="149.13086956521727" as="targetPoint" />
          </mxGeometry>
        </mxCell>
        <mxCell id="r0InS06p0t5X-sUGNF3C-7" value="1" style="resizable=0;html=1;whiteSpace=wrap;align=left;verticalAlign=bottom;" connectable="0" vertex="1" parent="r0InS06p0t5X-sUGNF3C-6">
          <mxGeometry x="-1" relative="1" as="geometry">
            <mxPoint x="50" y="-11" as="offset" />
          </mxGeometry>
        </mxCell>
        <mxCell id="r0InS06p0t5X-sUGNF3C-11" value="payment" style="shape=ext;margin=3;double=1;whiteSpace=wrap;html=1;align=center;" vertex="1" parent="1">
          <mxGeometry x="140" y="475" width="100" height="40" as="geometry" />
        </mxCell>
        <mxCell id="r0InS06p0t5X-sUGNF3C-12" value="Relationship" style="shape=rhombus;double=1;perimeter=rhombusPerimeter;whiteSpace=wrap;html=1;align=center;" vertex="1" parent="1">
          <mxGeometry x="220" y="160" width="120" height="60" as="geometry" />
        </mxCell>
        <mxCell id="r0InS06p0t5X-sUGNF3C-13" value="reserve" style="shape=ext;margin=3;double=1;whiteSpace=wrap;html=1;align=center;" vertex="1" parent="1">
          <mxGeometry x="390" y="250" width="100" height="40" as="geometry" />
        </mxCell>
        <mxCell id="r0InS06p0t5X-sUGNF3C-16" value="" style="shape=link;html=1;rounded=0;exitX=1;exitY=1;exitDx=0;exitDy=0;entryX=0.5;entryY=0;entryDx=0;entryDy=0;" edge="1" parent="1" source="r0InS06p0t5X-sUGNF3C-12" target="r0InS06p0t5X-sUGNF3C-13">
          <mxGeometry relative="1" as="geometry">
            <mxPoint x="450" y="320" as="sourcePoint" />
            <mxPoint x="450" y="230" as="targetPoint" />
          </mxGeometry>
        </mxCell>
        <mxCell id="r0InS06p0t5X-sUGNF3C-17" value="N" style="resizable=0;html=1;whiteSpace=wrap;align=right;verticalAlign=bottom;" connectable="0" vertex="1" parent="r0InS06p0t5X-sUGNF3C-16">
          <mxGeometry x="1" relative="1" as="geometry">
            <mxPoint x="-60" y="-20" as="offset" />
          </mxGeometry>
        </mxCell>
        <mxCell id="r0InS06p0t5X-sUGNF3C-18" value="Relationship" style="shape=rhombus;double=1;perimeter=rhombusPerimeter;whiteSpace=wrap;html=1;align=center;" vertex="1" parent="1">
          <mxGeometry x="40" y="240" width="80" height="50" as="geometry" />
        </mxCell>
        <mxCell id="r0InS06p0t5X-sUGNF3C-19" value="" style="shape=link;html=1;rounded=0;entryX=0.627;entryY=-0.075;entryDx=0;entryDy=0;entryPerimeter=0;" edge="1" parent="1" source="r0InS06p0t5X-sUGNF3C-18" target="r0InS06p0t5X-sUGNF3C-11">
          <mxGeometry relative="1" as="geometry">
            <mxPoint x="220" y="450" as="sourcePoint" />
            <mxPoint x="380" y="450" as="targetPoint" />
          </mxGeometry>
        </mxCell>
        <mxCell id="r0InS06p0t5X-sUGNF3C-20" value="N" style="resizable=0;html=1;whiteSpace=wrap;align=right;verticalAlign=bottom;" connectable="0" vertex="1" parent="r0InS06p0t5X-sUGNF3C-19">
          <mxGeometry x="1" relative="1" as="geometry">
            <mxPoint x="-53" y="-112" as="offset" />
          </mxGeometry>
        </mxCell>
        <mxCell id="r0InS06p0t5X-sUGNF3C-23" value="" style="endArrow=none;html=1;rounded=0;exitX=0.333;exitY=0.167;exitDx=0;exitDy=0;exitPerimeter=0;entryX=0.25;entryY=1;entryDx=0;entryDy=0;" edge="1" parent="1" source="r0InS06p0t5X-sUGNF3C-18" target="r0InS06p0t5X-sUGNF3C-2">
          <mxGeometry relative="1" as="geometry">
            <mxPoint x="130" y="340" as="sourcePoint" />
            <mxPoint x="290" y="340" as="targetPoint" />
          </mxGeometry>
        </mxCell>
        <mxCell id="r0InS06p0t5X-sUGNF3C-24" value="1" style="resizable=0;html=1;whiteSpace=wrap;align=right;verticalAlign=bottom;" connectable="0" vertex="1" parent="r0InS06p0t5X-sUGNF3C-23">
          <mxGeometry x="1" relative="1" as="geometry">
            <mxPoint x="-15" y="70" as="offset" />
          </mxGeometry>
        </mxCell>
        <mxCell id="r0InS06p0t5X-sUGNF3C-25" value="report" style="shape=ext;margin=3;double=1;whiteSpace=wrap;html=1;align=center;" vertex="1" parent="1">
          <mxGeometry x="60" y="-160" width="100" height="50" as="geometry" />
        </mxCell>
        <mxCell id="r0InS06p0t5X-sUGNF3C-26" value="Relationship" style="shape=rhombus;double=1;perimeter=rhombusPerimeter;whiteSpace=wrap;html=1;align=center;" vertex="1" parent="1">
          <mxGeometry x="390" y="20" width="120" height="60" as="geometry" />
        </mxCell>
        <mxCell id="r0InS06p0t5X-sUGNF3C-30" value="" style="shape=link;html=1;rounded=0;exitX=1;exitY=0.75;exitDx=0;exitDy=0;" edge="1" parent="1" source="r0InS06p0t5X-sUGNF3C-25" target="r0InS06p0t5X-sUGNF3C-26">
          <mxGeometry relative="1" as="geometry">
            <mxPoint x="-10" y="370" as="sourcePoint" />
            <mxPoint x="150" y="370" as="targetPoint" />
          </mxGeometry>
        </mxCell>
        <mxCell id="r0InS06p0t5X-sUGNF3C-31" value="N" style="resizable=0;html=1;whiteSpace=wrap;align=right;verticalAlign=bottom;" connectable="0" vertex="1" parent="r0InS06p0t5X-sUGNF3C-30">
          <mxGeometry x="1" relative="1" as="geometry">
            <mxPoint x="-173" y="-114" as="offset" />
          </mxGeometry>
        </mxCell>
        <mxCell id="r0InS06p0t5X-sUGNF3C-32" value="" style="endArrow=none;html=1;rounded=0;" edge="1" parent="1" source="r0InS06p0t5X-sUGNF3C-2" target="r0InS06p0t5X-sUGNF3C-26">
          <mxGeometry relative="1" as="geometry">
            <mxPoint x="250" y="210" as="sourcePoint" />
            <mxPoint x="410" y="110" as="targetPoint" />
          </mxGeometry>
        </mxCell>
        <mxCell id="r0InS06p0t5X-sUGNF3C-34" value="vehicle" style="rounded=1;arcSize=10;whiteSpace=wrap;html=1;align=center;" vertex="1" parent="1">
          <mxGeometry x="700" y="460" width="100" height="40" as="geometry" />
        </mxCell>
        <mxCell id="r0InS06p0t5X-sUGNF3C-35" value="Relationship" style="shape=rhombus;perimeter=rhombusPerimeter;whiteSpace=wrap;html=1;align=center;" vertex="1" parent="1">
          <mxGeometry x="650" y="340" width="120" height="60" as="geometry" />
        </mxCell>
        <mxCell id="r0InS06p0t5X-sUGNF3C-36" value="" style="endArrow=none;html=1;rounded=0;exitX=0.75;exitY=1;exitDx=0;exitDy=0;" edge="1" parent="1" source="r0InS06p0t5X-sUGNF3C-3" target="r0InS06p0t5X-sUGNF3C-35">
          <mxGeometry relative="1" as="geometry">
            <mxPoint x="640" y="250" as="sourcePoint" />
            <mxPoint x="800" y="250" as="targetPoint" />
          </mxGeometry>
        </mxCell>
        <mxCell id="r0InS06p0t5X-sUGNF3C-37" value="N" style="resizable=0;html=1;whiteSpace=wrap;align=right;verticalAlign=bottom;" connectable="0" vertex="1" parent="r0InS06p0t5X-sUGNF3C-36">
          <mxGeometry x="1" relative="1" as="geometry">
            <mxPoint x="2" y="-21" as="offset" />
          </mxGeometry>
        </mxCell>
        <mxCell id="r0InS06p0t5X-sUGNF3C-41" value="" style="endArrow=none;html=1;rounded=0;entryX=0.604;entryY=-0.075;entryDx=0;entryDy=0;entryPerimeter=0;" edge="1" parent="1" source="r0InS06p0t5X-sUGNF3C-35" target="r0InS06p0t5X-sUGNF3C-34">
          <mxGeometry relative="1" as="geometry">
            <mxPoint x="760" y="359.5" as="sourcePoint" />
            <mxPoint x="920" y="359.5" as="targetPoint" />
          </mxGeometry>
        </mxCell>
        <mxCell id="r0InS06p0t5X-sUGNF3C-42" value="1" style="resizable=0;html=1;whiteSpace=wrap;align=right;verticalAlign=bottom;" connectable="0" vertex="1" parent="r0InS06p0t5X-sUGNF3C-41">
          <mxGeometry x="1" relative="1" as="geometry">
            <mxPoint y="-17" as="offset" />
          </mxGeometry>
        </mxCell>
        <mxCell id="r0InS06p0t5X-sUGNF3C-44" value="" style="ellipse;whiteSpace=wrap;html=1;aspect=fixed;" vertex="1" parent="1">
          <mxGeometry x="730" y="520" width="20" height="20" as="geometry" />
        </mxCell>
        <mxCell id="r0InS06p0t5X-sUGNF3C-45" value="" style="endArrow=none;html=1;rounded=0;entryX=0;entryY=1;entryDx=0;entryDy=0;exitX=0.595;exitY=0.007;exitDx=0;exitDy=0;exitPerimeter=0;" edge="1" parent="1" source="r0InS06p0t5X-sUGNF3C-48" target="r0InS06p0t5X-sUGNF3C-44">
          <mxGeometry relative="1" as="geometry">
            <mxPoint x="660" y="580" as="sourcePoint" />
            <mxPoint x="730" y="560" as="targetPoint" />
          </mxGeometry>
        </mxCell>
        <mxCell id="r0InS06p0t5X-sUGNF3C-46" value="" style="endArrow=none;html=1;rounded=0;entryX=0.5;entryY=1;entryDx=0;entryDy=0;exitX=0.5;exitY=0;exitDx=0;exitDy=0;" edge="1" parent="1" source="r0InS06p0t5X-sUGNF3C-49" target="r0InS06p0t5X-sUGNF3C-44">
          <mxGeometry relative="1" as="geometry">
            <mxPoint x="740" y="630" as="sourcePoint" />
            <mxPoint x="900" y="630" as="targetPoint" />
          </mxGeometry>
        </mxCell>
        <mxCell id="r0InS06p0t5X-sUGNF3C-47" value="" style="endArrow=none;html=1;rounded=0;exitX=1;exitY=1;exitDx=0;exitDy=0;entryX=0.25;entryY=0;entryDx=0;entryDy=0;" edge="1" parent="1" source="r0InS06p0t5X-sUGNF3C-44" target="r0InS06p0t5X-sUGNF3C-50">
          <mxGeometry relative="1" as="geometry">
            <mxPoint x="770" y="540" as="sourcePoint" />
            <mxPoint x="830" y="610" as="targetPoint" />
          </mxGeometry>
        </mxCell>
        <mxCell id="r0InS06p0t5X-sUGNF3C-48" value="bus" style="rounded=1;arcSize=10;whiteSpace=wrap;html=1;align=center;" vertex="1" parent="1">
          <mxGeometry x="520" y="580" width="100" height="40" as="geometry" />
        </mxCell>
        <mxCell id="r0InS06p0t5X-sUGNF3C-49" value="plane" style="rounded=1;arcSize=10;whiteSpace=wrap;html=1;align=center;" vertex="1" parent="1">
          <mxGeometry x="690" y="690" width="100" height="40" as="geometry" />
        </mxCell>
        <mxCell id="r0InS06p0t5X-sUGNF3C-50" value="train" style="rounded=1;arcSize=10;whiteSpace=wrap;html=1;align=center;" vertex="1" parent="1">
          <mxGeometry x="880" y="630" width="100" height="40" as="geometry" />
        </mxCell>
        <mxCell id="r0InS06p0t5X-sUGNF3C-51" value="D" style="text;html=1;align=center;verticalAlign=middle;whiteSpace=wrap;rounded=0;" vertex="1" parent="1">
          <mxGeometry x="710" y="520" width="60" height="30" as="geometry" />
        </mxCell>
        <mxCell id="r0InS06p0t5X-sUGNF3C-52" value="" style="ellipse;whiteSpace=wrap;html=1;aspect=fixed;" vertex="1" parent="1">
          <mxGeometry x="510" y="100" width="20" height="20" as="geometry" />
        </mxCell>
        <mxCell id="r0InS06p0t5X-sUGNF3C-53" value="U" style="text;html=1;align=center;verticalAlign=middle;whiteSpace=wrap;rounded=0;" vertex="1" parent="1">
          <mxGeometry x="490" y="95" width="60" height="30" as="geometry" />
        </mxCell>
        <mxCell id="r0InS06p0t5X-sUGNF3C-54" value="" style="endArrow=none;html=1;rounded=0;entryX=0.75;entryY=0;entryDx=0;entryDy=0;" edge="1" parent="1" target="r0InS06p0t5X-sUGNF3C-13">
          <mxGeometry relative="1" as="geometry">
            <mxPoint x="520" y="120" as="sourcePoint" />
            <mxPoint x="500" y="280" as="targetPoint" />
          </mxGeometry>
        </mxCell>
        <mxCell id="r0InS06p0t5X-sUGNF3C-58" value="" style="endArrow=none;html=1;rounded=0;entryX=0.5;entryY=0;entryDx=0;entryDy=0;" edge="1" parent="1" target="r0InS06p0t5X-sUGNF3C-3">
          <mxGeometry relative="1" as="geometry">
            <mxPoint x="530" y="109.5" as="sourcePoint" />
            <mxPoint x="690" y="109.5" as="targetPoint" />
          </mxGeometry>
        </mxCell>
        <mxCell id="r0InS06p0t5X-sUGNF3C-62" value="1" style="text;html=1;align=center;verticalAlign=middle;whiteSpace=wrap;rounded=0;" vertex="1" parent="1">
          <mxGeometry x="190" y="110" width="60" height="30" as="geometry" />
        </mxCell>
        <mxCell id="r0InS06p0t5X-sUGNF3C-63" value="Relationship" style="shape=rhombus;double=1;perimeter=rhombusPerimeter;whiteSpace=wrap;html=1;align=center;" vertex="1" parent="1">
          <mxGeometry x="510" y="340" width="90" height="40" as="geometry" />
        </mxCell>
        <mxCell id="r0InS06p0t5X-sUGNF3C-64" value="" style="endArrow=none;html=1;rounded=0;entryX=0.574;entryY=1.025;entryDx=0;entryDy=0;entryPerimeter=0;" edge="1" parent="1" source="r0InS06p0t5X-sUGNF3C-63" target="r0InS06p0t5X-sUGNF3C-3">
          <mxGeometry relative="1" as="geometry">
            <mxPoint x="470" y="270" as="sourcePoint" />
            <mxPoint x="630" y="270" as="targetPoint" />
          </mxGeometry>
        </mxCell>
        <mxCell id="r0InS06p0t5X-sUGNF3C-65" value="1" style="resizable=0;html=1;whiteSpace=wrap;align=right;verticalAlign=bottom;" connectable="0" vertex="1" parent="r0InS06p0t5X-sUGNF3C-64">
          <mxGeometry x="1" relative="1" as="geometry">
            <mxPoint x="-37" y="29" as="offset" />
          </mxGeometry>
        </mxCell>
        <mxCell id="r0InS06p0t5X-sUGNF3C-66" value="" style="shape=link;html=1;rounded=0;exitX=0.75;exitY=1;exitDx=0;exitDy=0;" edge="1" parent="1" source="r0InS06p0t5X-sUGNF3C-13" target="r0InS06p0t5X-sUGNF3C-63">
          <mxGeometry relative="1" as="geometry">
            <mxPoint x="470" y="260" as="sourcePoint" />
            <mxPoint x="630" y="260" as="targetPoint" />
          </mxGeometry>
        </mxCell>
        <mxCell id="r0InS06p0t5X-sUGNF3C-67" value="1" style="resizable=0;html=1;whiteSpace=wrap;align=right;verticalAlign=bottom;" connectable="0" vertex="1" parent="r0InS06p0t5X-sUGNF3C-66">
          <mxGeometry x="1" relative="1" as="geometry">
            <mxPoint x="-10" y="-17" as="offset" />
          </mxGeometry>
        </mxCell>
        <mxCell id="r0InS06p0t5X-sUGNF3C-68" value="Relationship" style="shape=rhombus;double=1;perimeter=rhombusPerimeter;whiteSpace=wrap;html=1;align=center;" vertex="1" parent="1">
          <mxGeometry x="260" y="385" width="80" height="40" as="geometry" />
        </mxCell>
        <mxCell id="r0InS06p0t5X-sUGNF3C-69" value="" style="shape=link;html=1;rounded=0;entryX=0.75;entryY=0;entryDx=0;entryDy=0;" edge="1" parent="1" source="r0InS06p0t5X-sUGNF3C-68" target="r0InS06p0t5X-sUGNF3C-11">
          <mxGeometry relative="1" as="geometry">
            <mxPoint x="340" y="400" as="sourcePoint" />
            <mxPoint x="500" y="400" as="targetPoint" />
          </mxGeometry>
        </mxCell>
        <mxCell id="r0InS06p0t5X-sUGNF3C-70" value="N" style="resizable=0;html=1;whiteSpace=wrap;align=right;verticalAlign=bottom;" connectable="0" vertex="1" parent="r0InS06p0t5X-sUGNF3C-69">
          <mxGeometry x="1" relative="1" as="geometry">
            <mxPoint x="35" y="-25" as="offset" />
          </mxGeometry>
        </mxCell>
        <mxCell id="r0InS06p0t5X-sUGNF3C-71" value="" style="endArrow=none;html=1;rounded=0;entryX=0.25;entryY=1;entryDx=0;entryDy=0;exitX=1;exitY=0;exitDx=0;exitDy=0;" edge="1" parent="1" source="r0InS06p0t5X-sUGNF3C-68" target="r0InS06p0t5X-sUGNF3C-13">
          <mxGeometry relative="1" as="geometry">
            <mxPoint x="340" y="400" as="sourcePoint" />
            <mxPoint x="500" y="400" as="targetPoint" />
          </mxGeometry>
        </mxCell>
        <mxCell id="r0InS06p0t5X-sUGNF3C-72" value="1" style="resizable=0;html=1;whiteSpace=wrap;align=right;verticalAlign=bottom;" connectable="0" vertex="1" parent="r0InS06p0t5X-sUGNF3C-71">
          <mxGeometry x="1" relative="1" as="geometry">
            <mxPoint x="-35" y="60" as="offset" />
          </mxGeometry>
        </mxCell>
        <mxCell id="r0InS06p0t5X-sUGNF3C-75" value="" style="endArrow=none;html=1;rounded=0;" edge="1" parent="1">
          <mxGeometry relative="1" as="geometry">
            <mxPoint x="470" y="70" as="sourcePoint" />
            <mxPoint x="520" y="100" as="targetPoint" />
          </mxGeometry>
        </mxCell>
        <mxCell id="r0InS06p0t5X-sUGNF3C-76" value="1" style="resizable=0;html=1;whiteSpace=wrap;align=right;verticalAlign=bottom;" connectable="0" vertex="1" parent="r0InS06p0t5X-sUGNF3C-75">
          <mxGeometry x="1" relative="1" as="geometry">
            <mxPoint x="-3" y="-9" as="offset" />
          </mxGeometry>
        </mxCell>
        <mxCell id="r0InS06p0t5X-sUGNF3C-78" value="" style="verticalLabelPosition=bottom;verticalAlign=top;html=1;shape=mxgraph.basic.arc;startAngle=0.6324939045369897;endAngle=0.9325393745676354;rotation=120;" vertex="1" parent="1">
          <mxGeometry x="450" y="167.5" width="60" height="45" as="geometry" />
        </mxCell>
        <mxCell id="r0InS06p0t5X-sUGNF3C-83" value="" style="shape=link;html=1;rounded=0;entryX=0.448;entryY=1.007;entryDx=0;entryDy=0;entryPerimeter=0;" edge="1" parent="1" source="r0InS06p0t5X-sUGNF3C-51" target="r0InS06p0t5X-sUGNF3C-34">
          <mxGeometry relative="1" as="geometry">
            <mxPoint x="690" y="560" as="sourcePoint" />
            <mxPoint x="850" y="560" as="targetPoint" />
          </mxGeometry>
        </mxCell>
        <mxCell id="r0InS06p0t5X-sUGNF3C-90" value="" style="verticalLabelPosition=bottom;verticalAlign=top;html=1;shape=mxgraph.basic.arc;startAngle=0.30169490202174265;endAngle=0.5257228375865874;" vertex="1" parent="1">
          <mxGeometry x="780" y="530" width="50" height="50" as="geometry" />
        </mxCell>
        <mxCell id="r0InS06p0t5X-sUGNF3C-91" value="" style="verticalLabelPosition=bottom;verticalAlign=top;html=1;shape=mxgraph.basic.arc;startAngle=0.3117155396375509;endAngle=0.7097217589817983;" vertex="1" parent="1">
          <mxGeometry x="725" y="570" width="25" height="30" as="geometry" />
        </mxCell>
        <mxCell id="r0InS06p0t5X-sUGNF3C-93" value="" style="verticalLabelPosition=bottom;verticalAlign=top;html=1;shape=mxgraph.basic.arc;startAngle=0.46251185199778944;endAngle=0.8648549367213713;" vertex="1" parent="1">
          <mxGeometry x="670" y="530" width="30" height="30" as="geometry" />
        </mxCell>
        <mxCell id="r0InS06p0t5X-sUGNF3C-94" value="" style="verticalLabelPosition=bottom;verticalAlign=top;html=1;shape=mxgraph.basic.arc;startAngle=0.5118552591674744;endAngle=0.8049968787625692;rotation=120;" vertex="1" parent="1">
          <mxGeometry x="525" y="150" width="60" height="30" as="geometry" />
        </mxCell>
      </root>
    </mxGraphModel>
  </diagram>
</mxfile>
